<svg width="24" height="22" viewBox="0 0 24 22" fill="none" xmlns="http://www.w3.org/2000/svg">
<path fill-rule="evenodd" clip-rule="evenodd" d="M8.57143 0C9.04482 0 9.42857 0.378836 9.42857 0.846154V2.53846H13.336C13.3485 2.53819 13.361 2.53819 13.3736 2.53846H16.2857C16.7591 2.53846 17.1429 2.9173 17.1429 3.38462C17.1429 3.85193 16.7591 4.23077 16.2857 4.23077H13.9987C13.9747 4.30734 13.9483 4.3901 13.9195 4.4786C13.7432 5.02088 13.4758 5.78121 13.1087 6.66159C12.4381 8.26995 11.4229 10.3092 10.0032 12.1533C10.5241 12.7297 11.0057 13.2102 11.4062 13.5871C11.7516 13.9121 12.0357 14.1592 12.2313 14.3233C12.329 14.4054 12.4045 14.4666 12.4544 14.5064C12.4793 14.5263 12.4979 14.5408 12.5095 14.5499C12.5127 14.5524 12.5153 14.5545 12.5175 14.5561C12.5193 14.5575 12.5208 14.5587 12.5218 14.5595L12.5235 14.5608C12.5236 14.5609 12.5237 14.5609 12.5238 14.561C12.5238 14.561 12.5239 14.561 12.5239 14.5611C12.5239 14.5611 12.524 14.5611 12.524 14.5611C12.8984 14.8467 12.9677 15.3777 12.6787 15.7476C12.3895 16.1176 11.8513 16.1862 11.4765 15.9007L12 15.2308C11.4765 15.9007 11.4763 15.9006 11.4762 15.9005L11.4759 15.9003L11.4752 15.8998L11.4732 15.8983L11.4673 15.8937C11.4637 15.891 11.4593 15.8875 11.4538 15.8833C11.4518 15.8817 11.4497 15.8801 11.4474 15.8783C11.4306 15.8652 11.4069 15.8466 11.3767 15.8225C11.3163 15.7743 11.2299 15.7041 11.1209 15.6127C10.9029 15.4297 10.5944 15.1612 10.2233 14.812C9.83949 14.4508 9.38774 14.0024 8.89937 13.4721C7.53331 15.0001 6.18527 16.1805 5.12693 17.0105C4.50539 17.4979 3.98202 17.8659 3.61105 18.1138C3.42551 18.2378 3.27792 18.3318 3.17505 18.3959C3.12361 18.4279 3.08333 18.4524 3.05506 18.4694C3.04092 18.4779 3.02979 18.4846 3.02175 18.4893C3.01944 18.4907 3.01738 18.4919 3.01558 18.493L3.01205 18.495L3.00787 18.4975L3.00743 18.4977C3.00725 18.4978 3.00707 18.4979 2.57143 17.7692L3.00707 18.4979C2.59939 18.7355 2.07385 18.6017 1.83325 18.1993C1.59276 17.797 1.72798 17.2785 2.13524 17.0408C2.13531 17.0408 2.13537 17.0408 2.13543 17.0407C2.13545 17.0407 2.13547 17.0407 2.13549 17.0407C2.13558 17.0406 2.13568 17.0406 2.13578 17.0405L2.14004 17.038C2.14457 17.0353 2.15216 17.0308 2.16271 17.0245C2.18383 17.0117 2.21679 16.9917 2.26077 16.9643C2.34875 16.9096 2.48074 16.8255 2.65011 16.7124C2.98896 16.4859 3.47675 16.1433 4.06057 15.6854C5.09826 14.8716 6.43379 13.6981 7.77454 12.1712C7.67146 12.0441 7.56787 11.914 7.46399 11.781C6.45157 10.4844 5.68463 9.33548 5.16935 8.50804C4.9116 8.09413 4.71647 7.76012 4.58477 7.52765C4.51891 7.4114 4.46888 7.32049 4.43479 7.25762C4.41774 7.22618 4.40468 7.20175 4.3956 7.18466C4.39107 7.17612 4.38753 7.16941 4.38499 7.16458L4.38193 7.15874L4.38096 7.15689L4.38048 7.15597C4.38042 7.15586 4.38037 7.15576 5.14286 6.76923L4.38037 7.15576C4.16412 6.74005 4.3302 6.22999 4.75131 6.01652C5.17231 5.8031 5.68882 5.96691 5.90517 6.38237C5.90517 6.38237 5.90517 6.38237 5.90517 6.38237C5.90518 6.3824 5.9052 6.38244 5.90522 6.38247C5.90526 6.38255 5.9053 6.38263 5.90534 6.3827L5.90669 6.38526C5.90752 6.38685 5.90869 6.38907 5.91019 6.39192C5.91127 6.39395 5.91252 6.39631 5.91394 6.39899C5.92074 6.4118 5.93148 6.43189 5.94614 6.45891C5.97545 6.51297 6.02043 6.59476 6.08097 6.70162C6.20206 6.91536 6.38528 7.22919 6.62975 7.62177C7.11894 8.4073 7.852 9.50595 8.82172 10.7478C8.83933 10.7704 8.85693 10.7929 8.87453 10.8152C10.0507 9.21303 10.9233 7.45693 11.5234 6.01749C11.8127 5.32373 12.0361 4.70971 12.198 4.23077H0.857143C0.383756 4.23077 0 3.85193 0 3.38462C0 2.9173 0.383756 2.53846 0.857143 2.53846H7.71428V0.846154C7.71428 0.378836 8.09804 0 8.57143 0ZM18 8.46154C18.3429 8.46154 18.6528 8.66326 18.7878 8.97438L23.9307 20.8205C24.0442 21.082 24.017 21.3822 23.8584 21.6196C23.6998 21.8571 23.431 22 23.1429 22H12.8571C12.569 22 12.3002 21.8571 12.1416 21.6196C11.983 21.3822 11.9558 21.082 12.0693 20.8205L17.2122 8.97438C17.3472 8.66326 17.6571 8.46154 18 8.46154ZM14.157 20.3077H21.843L21.1083 18.6154H14.8917L14.157 20.3077ZM15.6264 16.9231H20.3736L18 11.4557L15.6264 16.9231Z" fill="#666E6D"/>
</svg>
