<svg width="29" height="28" viewBox="0 0 29 28" fill="none" xmlns="http://www.w3.org/2000/svg">
<path fill-rule="evenodd" clip-rule="evenodd" d="M14.1692 0.0183362C12.9096 0.151926 11.865 0.98978 11.495 2.16333L11.426 2.38194L8.58482 2.40587C6.12773 2.42658 5.69372 2.44373 5.37459 2.53255C4.04937 2.90147 3.04353 3.87494 2.66038 5.15946C2.5672 5.47189 2.55084 5.89504 2.52987 8.53409L2.50589 11.5516L1.42864 11.5702L0.351328 11.5889L0.206985 11.7515C0.127588 11.8409 0.0452376 12.0284 0.0238968 12.1682C0.00255602 12.308 -0.00611531 13.2261 0.00458584 14.2083C0.0301702 16.5616 -0.0534714 16.4407 1.54906 16.4408L2.54555 16.4409V19.4621C2.54555 22.2323 2.55503 22.5129 2.65927 22.8405C2.99795 23.9047 3.6998 24.732 4.65159 25.1891C5.43154 25.5637 5.47127 25.5678 8.58482 25.5941L11.426 25.618L11.4992 25.8366C11.7262 26.5149 12.2249 27.1656 12.7845 27.5131C14.5479 28.6085 16.9105 27.7723 17.5199 25.837L17.5886 25.6189L20.4299 25.5939C22.8782 25.5725 23.3224 25.5549 23.6403 25.4668C24.9637 25.1004 25.9733 24.1233 26.354 22.8405C26.4464 22.5291 26.4632 22.0961 26.485 19.462L26.5099 16.4408H27.4643C28.5138 16.4408 28.7481 16.3856 28.9051 16.1016C29.0342 15.8682 29.0304 12.1248 28.9008 11.8905C28.7396 11.5989 28.5684 11.5592 27.4718 11.5591L26.4694 11.559L26.4693 8.53784C26.4693 5.76847 26.4598 5.48689 26.3556 5.15946C26.0172 4.09551 25.3152 3.26795 24.3633 2.8108C23.5869 2.4379 23.542 2.43331 20.435 2.40605L17.5988 2.3811L17.4227 1.93461C16.9173 0.65259 15.5854 -0.131863 14.1692 0.0183362ZM15.28 1.37436C16.4996 1.89538 16.7629 3.44548 15.7861 4.35405C14.9241 5.15577 13.3881 4.90627 12.8453 3.87643C12.5834 3.37951 12.575 2.66418 12.8254 2.19536C13.2759 1.35209 14.3707 0.98591 15.28 1.37436ZM11.4896 3.89441C11.7609 4.79078 12.6244 5.63637 13.5696 5.93147L13.8925 6.03226V8.79568V11.5592H12.8718C11.7649 11.5592 11.5767 11.6037 11.4377 11.8992C11.3939 11.9921 11.3709 12.7271 11.3709 14.0316V16.0222L11.5503 16.2166L11.7295 16.411L12.811 16.4297L13.8925 16.4485V19.2049V21.9613L13.5081 22.0938C12.5508 22.4238 11.7316 23.2431 11.4966 24.1055L11.4277 24.3585H8.73697C5.81998 24.3585 5.61758 24.3403 5.06487 24.0267C4.72293 23.8328 4.3495 23.4713 4.14913 23.1403C3.82121 22.5987 3.80632 22.4326 3.80632 19.3156V16.4408H4.79341C5.91285 16.4408 6.09348 16.3922 6.24046 16.0518C6.373 15.7448 6.36789 12.1639 6.23456 11.9144C6.06869 11.6039 5.88708 11.5592 4.79341 11.5592H3.80632V8.68435C3.80632 5.57845 3.82317 5.38747 4.14378 4.85775C4.33166 4.54741 4.74292 4.14956 5.06445 3.96721C5.59471 3.66634 5.78499 3.64955 8.7013 3.64532L11.4129 3.6414L11.4896 3.89441ZM23.3255 3.73135C24.2058 3.95328 24.8864 4.61212 25.1157 5.46427C25.1924 5.74925 25.2086 6.31188 25.2086 8.68435V11.5592H24.1641H23.1196L22.9187 11.7328L22.7178 11.9065L22.7001 13.9043C22.6849 15.6183 22.6959 15.9276 22.778 16.0811C22.9465 16.3965 23.1245 16.4408 24.2242 16.4408H25.2139L25.1959 19.462C25.1781 22.4374 25.1758 22.4882 25.0396 22.8107C24.7834 23.4176 24.2365 23.9469 23.6096 24.1949C23.2783 24.326 23.213 24.3291 20.4375 24.3464L17.6037 24.364L17.5262 24.1083C17.2539 23.209 16.3918 22.3639 15.4454 22.0685L15.1225 21.9677V19.2081V16.4485L16.2039 16.4297L17.2854 16.411L17.4647 16.2166L17.644 16.0222V14V11.9778L17.4647 11.7834L17.2854 11.5889L16.2039 11.5702L15.1225 11.5515V8.79508V6.03863L15.5069 5.90611C16.4642 5.57613 17.2833 4.75685 17.5183 3.89441L17.5872 3.6414H20.278C22.4799 3.6414 23.0336 3.65771 23.3255 3.73135ZM5.03634 13.9834V15.1872L3.1605 15.2038L1.28473 15.2204V14L1.28479 12.7796H3.16056H5.03634V13.9834ZM27.7302 13.9851V15.2204H25.8544H23.9786V14.0157V12.8111L25.839 12.7944C26.8623 12.7853 27.7063 12.7715 27.7148 12.7638C27.7233 12.7561 27.7302 13.3057 27.7302 13.9851ZM16.414 14V15.1906H14.5075H12.6009V14V12.8093H14.5075H16.414V14ZM15.2078 23.2896C16.4586 23.7426 16.7758 25.3889 15.7888 26.3052C15.285 26.7729 14.3843 26.9163 13.7387 26.6315C12.5121 26.0904 12.2503 24.5561 13.2291 23.6457C13.7246 23.1847 14.5221 23.0412 15.2078 23.2896Z" fill="#666E6D"/>
</svg>
