<svg width="21" height="21" viewBox="0 0 21 21" fill="none" xmlns="http://www.w3.org/2000/svg">
<path d="M20.3906 0.61874C20.1963 0.422169 19.9648 0.266229 19.7096 0.160003C19.4544 0.0537775 19.1806 -0.000611273 18.9042 5.18211e-06H13.1419C12.7639 0.000709925 12.4015 0.150444 12.1332 0.416714L0.613819 11.9336C0.220754 12.3275 0 12.8612 0 13.4176C0 13.9741 0.220754 14.5078 0.613819 14.9017L6.09812 20.3859C6.49209 20.7791 7.02599 21 7.58263 21C8.13928 21 8.67317 20.7791 9.06715 20.3859L20.5818 8.87369C20.8486 8.60584 20.9989 8.24349 21 7.86544V2.09995C21.0017 1.82499 20.9487 1.55243 20.8441 1.29814C20.7394 1.04385 20.5853 0.812904 20.3906 0.61874ZM16.5 5.99986C16.2034 5.99986 15.9133 5.91189 15.6667 5.74707C15.42 5.58225 15.2277 5.34799 15.1142 5.07391C15.0007 4.79982 14.971 4.49823 15.0289 4.20727C15.0867 3.9163 15.2296 3.64903 15.4394 3.43926C15.6491 3.22949 15.9164 3.08663 16.2074 3.02875C16.4984 2.97088 16.8 3.00058 17.074 3.11411C17.3481 3.22764 17.5824 3.41989 17.7472 3.66656C17.912 3.91323 18 4.20323 18 4.49989C18 4.89771 17.842 5.27923 17.5607 5.56053C17.2794 5.84183 16.8978 5.99986 16.5 5.99986Z" fill="#666E6D"/>
</svg>
