<svg width="28" height="26" viewBox="0 0 28 26" fill="none" xmlns="http://www.w3.org/2000/svg">
<path d="M20.7965 0.559998C17.8559 0.559998 16.6131 1.97285 14.5652 1.97285C12.4655 1.97285 10.8639 0.570278 8.31563 0.570278C5.82136 0.570278 3.16153 2.10356 1.47242 4.71557C-0.899332 8.39897 -0.496747 15.3362 3.34458 21.2461C4.71862 23.3617 6.5536 25.7343 8.96035 25.76H9.00411C11.0958 25.76 11.7172 24.3809 14.5958 24.3648H14.6396C17.4752 24.3648 18.044 25.7519 20.127 25.7519H20.1707C22.5775 25.7262 24.5109 23.0973 25.885 20.9898C26.8739 19.4741 27.2415 18.7134 28 16.9987C22.4433 14.875 21.5506 6.94353 27.046 3.90267C25.3686 1.7878 23.0114 0.562934 20.7892 0.562934L20.7965 0.559998Z" fill="#C8C8C8"/>
</svg>
