<svg width="323" height="281" viewBox="0 0 323 281" fill="none" xmlns="http://www.w3.org/2000/svg">
<rect width="323" height="281" rx="27" fill="white"/>
<path d="M59.9923 48.7222H75.3749V239.051H59.9923V48.7222Z" fill="#666E6D"/>
<path d="M86.1426 48.724H109.216V239.052H86.1426V48.724Z" fill="#666E6D"/>
<path d="M147.673 48.4508H159.245V238.779H147.673V48.4508Z" fill="#666E6D"/>
<path d="M119.984 48.4508H131.556V238.779H119.984V48.4508Z" fill="#666E6D"/>
<path d="M138.443 48.4508H146.135V238.779H138.443V48.4508Z" fill="#666E6D"/>
<path d="M166.132 48.724H189.206V239.052H166.132V48.724Z" fill="#666E6D"/>
<path d="M199.974 48.724H211.546V239.052H199.974V48.724Z" fill="#666E6D"/>
<path d="M258.427 48.724H269.999V239.052H258.427V48.724Z" fill="#666E6D"/>
<path d="M224.586 48.724H247.73V239.052H224.586V48.724Z" fill="#666E6D"/>
<path fill-rule="evenodd" clip-rule="evenodd" d="M233.524 265.617H295.099C303.384 265.617 310.099 258.902 310.099 250.617V212.604H309.099V250.617C309.099 258.349 302.831 264.617 295.099 264.617H233.524V265.617ZM233.524 25.1111H295.099C302.831 25.1111 309.099 31.3791 309.099 39.1111V77.1249H310.099V39.1111C310.099 30.8268 303.384 24.1111 295.099 24.1111H233.524V25.1111ZM98.0449 24.1111V25.1111H34.9974C27.2655 25.1111 20.9974 31.3791 20.9974 39.1111V77.1249H19.9974V39.1111C19.9974 30.8268 26.7132 24.1111 34.9974 24.1111H98.0449ZM98.0449 264.617V265.617H34.9974C26.7132 265.617 19.9974 258.901 19.9974 250.617V212.604H20.9974V250.617C20.9974 258.349 27.2655 264.617 34.9974 264.617H98.0449Z" fill="#CFCFCF"/>
<rect x="17" y="154" width="289" height="8" rx="4" fill="#F57300"/>
<rect x="17" y="81" width="289" height="77" fill="url(#paint0_linear)"/>
<rect x="64" y="122" width="195" height="27" rx="5" fill="black" fill-opacity="0.53"/>
<path d="M78.7266 137.398H77.6719V141H76.2188V132.547H77.6719V136.125H78.6172L81.4609 132.547H83.2109L79.8672 136.609L83.4922 141H81.6562L78.7266 137.398ZM91.6641 132.547V141H90.2109V133.742H87.3359L87.1641 136.906C87.0703 138.359 86.8255 139.398 86.4297 140.023C86.0391 140.648 85.4167 140.974 84.5625 141H83.9844V139.727L84.3984 139.695C84.8672 139.643 85.2031 139.372 85.4062 138.883C85.6094 138.393 85.7396 137.487 85.7969 136.164L85.9531 132.547H91.6641ZM99.4531 132.547H100.898V141H99.4531V134.836L95.5547 141H94.1094V132.547H95.5547V138.719L99.4531 132.547ZM105.852 137.398H104.797V141H103.344V132.547H104.797V136.125H105.742L108.586 132.547H110.336L106.992 136.609L110.617 141H108.781L105.852 137.398ZM118.766 141H117.32V137.391H113.438V141H111.984V132.547H113.438V136.211H117.32V132.547H118.766V141ZM126.562 132.547H128.008V141H126.562V134.836L122.664 141H121.219V132.547H122.664V138.719L126.562 132.547ZM136.609 133.719H133.773V141H132.328V133.719H129.547V132.547H136.609V133.719ZM140.898 141.156C139.753 141.156 138.82 140.781 138.102 140.031C137.383 139.276 137.023 138.268 137.023 137.008V136.742C137.023 135.904 137.182 135.156 137.5 134.5C137.823 133.839 138.271 133.323 138.844 132.953C139.422 132.578 140.047 132.391 140.719 132.391C141.818 132.391 142.672 132.753 143.281 133.477C143.891 134.201 144.195 135.237 144.195 136.586V137.188H138.469C138.49 138.021 138.732 138.695 139.195 139.211C139.664 139.721 140.258 139.977 140.977 139.977C141.487 139.977 141.919 139.872 142.273 139.664C142.628 139.456 142.938 139.18 143.203 138.836L144.086 139.523C143.378 140.612 142.315 141.156 140.898 141.156ZM140.719 133.578C140.135 133.578 139.646 133.792 139.25 134.219C138.854 134.641 138.609 135.234 138.516 136H142.75V135.891C142.708 135.156 142.51 134.589 142.156 134.188C141.802 133.781 141.323 133.578 140.719 133.578ZM156.75 141H155.305V137.391H151.422V141H149.969V132.547H151.422V136.211H155.305V132.547H156.75V141ZM164.297 141C164.214 140.833 164.146 140.536 164.094 140.109C163.422 140.807 162.62 141.156 161.688 141.156C160.854 141.156 160.169 140.922 159.633 140.453C159.102 139.979 158.836 139.38 158.836 138.656C158.836 137.776 159.169 137.094 159.836 136.609C160.508 136.12 161.451 135.875 162.664 135.875H164.07V135.211C164.07 134.706 163.919 134.305 163.617 134.008C163.315 133.706 162.87 133.555 162.281 133.555C161.766 133.555 161.333 133.685 160.984 133.945C160.635 134.206 160.461 134.521 160.461 134.891H159.008C159.008 134.469 159.156 134.062 159.453 133.672C159.755 133.276 160.161 132.964 160.672 132.734C161.188 132.505 161.753 132.391 162.367 132.391C163.341 132.391 164.104 132.635 164.656 133.125C165.208 133.609 165.495 134.279 165.516 135.133V139.023C165.516 139.799 165.615 140.417 165.812 140.875V141H164.297ZM161.898 139.898C162.352 139.898 162.781 139.781 163.188 139.547C163.594 139.312 163.888 139.008 164.07 138.633V136.898H162.938C161.167 136.898 160.281 137.417 160.281 138.453C160.281 138.906 160.432 139.26 160.734 139.516C161.036 139.771 161.424 139.898 161.898 139.898ZM173.328 132.547V139.82H176.422V132.547H177.867V139.82H180.953V132.547H182.406V141H171.875V132.547H173.328ZM190.969 133.719H188.133V141H186.688V133.719H183.906V132.547H190.969V133.719ZM199.516 136.867C199.516 138.154 199.221 139.19 198.633 139.977C198.044 140.763 197.247 141.156 196.242 141.156C195.216 141.156 194.409 140.831 193.82 140.18V144.25H192.375V132.547H193.695L193.766 133.484C194.354 132.755 195.172 132.391 196.219 132.391C197.234 132.391 198.036 132.773 198.625 133.539C199.219 134.305 199.516 135.37 199.516 136.734V136.867ZM198.07 136.703C198.07 135.75 197.867 134.997 197.461 134.445C197.055 133.893 196.497 133.617 195.789 133.617C194.914 133.617 194.258 134.005 193.82 134.781V138.82C194.253 139.591 194.914 139.977 195.805 139.977C196.497 139.977 197.047 139.703 197.453 139.156C197.865 138.604 198.07 137.786 198.07 136.703ZM206.828 132.547H208.273V141H206.828V134.836L202.93 141H201.484V132.547H202.93V138.719L206.828 132.547ZM213.43 135.633L215.305 132.547H216.992L214.227 136.727L217.078 141H215.406L213.453 137.836L211.5 141H209.82L212.672 136.727L209.906 132.547H211.578L213.43 135.633ZM221.539 136.758H217.727V135.578H221.539V136.758ZM225.586 137.398H224.531V141H223.078V132.547H224.531V136.125H225.477L228.32 132.547H230.07L226.727 136.609L230.352 141H228.516L225.586 137.398ZM231.039 136.695C231.039 135.867 231.201 135.122 231.523 134.461C231.852 133.799 232.305 133.289 232.883 132.93C233.466 132.57 234.13 132.391 234.875 132.391C236.026 132.391 236.956 132.789 237.664 133.586C238.378 134.383 238.734 135.443 238.734 136.766V136.867C238.734 137.69 238.576 138.43 238.258 139.086C237.945 139.737 237.495 140.245 236.906 140.609C236.323 140.974 235.651 141.156 234.891 141.156C233.745 141.156 232.815 140.758 232.102 139.961C231.393 139.164 231.039 138.109 231.039 136.797V136.695ZM232.492 136.867C232.492 137.805 232.708 138.557 233.141 139.125C233.578 139.693 234.161 139.977 234.891 139.977C235.625 139.977 236.208 139.69 236.641 139.117C237.073 138.539 237.289 137.732 237.289 136.695C237.289 135.768 237.068 135.018 236.625 134.445C236.188 133.867 235.604 133.578 234.875 133.578C234.161 133.578 233.586 133.862 233.148 134.43C232.711 134.997 232.492 135.81 232.492 136.867ZM239.914 139.82L240.414 139.203C240.977 138.474 241.297 137.38 241.375 135.922L241.508 132.547H246.953V139.82H248.039V143.484H246.594V141H240.695V143.484H239.25L239.258 139.82H239.914ZM241.625 139.82H245.508V133.883H242.906L242.82 135.898C242.732 137.581 242.333 138.888 241.625 139.82Z" fill="white"/>
<defs>
<linearGradient id="paint0_linear" x1="161.5" y1="81" x2="161.5" y2="158" gradientUnits="userSpaceOnUse">
<stop stop-color="#C4C4C4" stop-opacity="0"/>
<stop offset="1" stop-color="#F57300" stop-opacity="0.44"/>
</linearGradient>
</defs>
</svg>
