<svg width="31" height="31" viewBox="0 0 31 31" fill="none" xmlns="http://www.w3.org/2000/svg">
<path d="M30.8173 13.1113L30.6579 12.4477H15.9557V18.5523H24.74C23.828 22.8009 19.5959 25.0373 16.139 25.0373C13.6238 25.0373 10.9724 23.9994 9.21747 22.3311C8.29159 21.4368 7.55459 20.3721 7.04867 19.1981C6.54275 18.024 6.27784 16.7636 6.26912 15.4889C6.26912 12.9176 7.44705 10.3456 9.16105 8.6537C10.875 6.96185 13.4637 6.01525 16.0375 6.01525C18.9851 6.01525 21.0976 7.55071 21.8876 8.25098L26.3094 3.93589C25.0123 2.81768 21.4489 0 15.895 0C11.61 0 7.50137 1.6102 4.498 4.5469C1.53413 7.43862 0 11.6202 0 15.5C0 19.3798 1.4516 23.3524 4.32378 26.267C7.39274 29.3753 11.7391 31 16.2145 31C20.2865 31 24.1461 29.4348 26.897 26.595C29.6013 23.7994 31 19.9313 31 15.8764C31 14.1694 30.8251 13.1556 30.8173 13.1113Z" fill="#C8C8C8"/>
</svg>
