<svg width="46" height="62" viewBox="0 0 46 62" fill="none" xmlns="http://www.w3.org/2000/svg">
<path d="M4.42462 36.2895C-6.59998 21.1808 4.24164 0 22.9998 0C41.832 0 52.6546 21.3285 41.4798 36.4191L22.8632 61.5588L4.42462 36.2895Z" fill="#F27E29"/>
<path d="M23.6726 40.5841L23.6049 40.5729C23.6144 40.5803 23.6255 40.5853 23.6374 40.5873C23.6492 40.5892 23.6613 40.5881 23.6726 40.5841ZM39.0753 15.8098C39.056 15.7053 39.0031 15.6105 38.925 15.5403C38.8469 15.4701 38.7482 15.4285 38.6444 15.4223C38.5406 15.416 38.4377 15.4454 38.3521 15.5057C38.2665 15.566 38.203 15.6538 38.1718 15.7552C38.1419 15.8515 38.083 15.9356 38.0034 15.9955C37.9238 16.0553 37.8277 16.0879 37.7289 16.0885H36.419C36.3342 16.0886 36.2511 16.0649 36.1785 16.0201L34.2835 14.8585C34.2109 14.8137 34.043 14.7901 34.043 14.7901H31.0115C31.0115 14.7901 30.8291 14.818 30.7524 14.8706L27.014 17.418C26.9493 17.462 26.8965 17.5217 26.8601 17.5919C26.8237 17.662 26.805 17.7403 26.8057 17.8196V21.4325C26.8056 21.5191 26.8285 21.6041 26.8721 21.6783C26.9156 21.7526 26.7415 21.3771 27.0529 21.854C27.3643 22.331 31.8812 24.4881 31.9548 24.5286C32.0285 24.5691 32.0902 24.629 32.1337 24.702L32.2021 24.9441L32.225 26.9773C32.2263 27.0615 32.2493 27.1438 32.2916 27.216C32.334 27.2882 32.3943 27.3477 32.4663 27.3885L34.4359 28.5025C34.5088 28.5439 34.5697 28.6045 34.6121 28.678C34.6545 28.7515 34.677 28.8352 34.6772 28.9206V33.1272C34.6772 33.2192 34.7032 33.3091 34.752 33.3864C34.8008 33.4636 34.8703 33.5248 34.9523 33.5626C35.0343 33.6004 35.1252 33.6133 35.2141 33.5996C35.303 33.586 35.3862 33.5464 35.4537 33.4856C36.248 32.7706 37.3869 31.7267 37.5384 31.4878C37.7891 31.0914 38.0242 30.6854 38.2438 30.27C38.6985 29.4091 39.0837 28.5117 39.3954 27.5867C40.4691 24.4092 39.6206 18.6973 39.0753 15.8098ZM25.3153 25.7655L20.1221 21.7839C20.0635 21.739 20.504 22.6279 19.9189 21.7147C19.3338 20.8015 17.4548 21.7147 17.4548 21.7147C17.4127 21.7147 17.3709 21.7063 17.332 21.6898C17.293 21.6733 17.2577 21.6491 17.2279 21.6186L16.0661 20.431C16.0346 20.3989 15.9973 20.3734 15.9562 20.356C15.915 20.3387 16.8765 20.8898 15.8265 20.3298C14.7765 19.7697 11.3225 20.3298 11.3225 20.3298C11.2591 20.3298 11.197 20.3105 11.1442 20.2745C11.0914 20.2384 11.0503 20.1872 11.026 20.1273C11.0017 20.0673 10.9954 20.0014 11.0078 19.9377C11.0201 19.8741 11.0507 19.8156 11.0956 19.7697L11.8086 19.0409C11.8383 19.0104 11.8737 18.9862 11.9127 18.9698C11.9516 18.9533 11.9934 18.9448 12.0355 18.9449H14.7765C14.9241 18.9449 15.0677 18.8956 15.1854 18.8045C15.3031 18.7134 15.3885 18.5855 15.4285 18.4402L16.0119 16.3196C16.0244 16.274 16.0458 16.2315 16.0749 16.1948C16.1041 16.158 16.1403 16.1277 16.1813 16.1058C16.1813 16.1058 17.5014 15.4223 18.5073 14.8819C19.5133 14.3415 18.6036 14.8124 18.6342 14.7609C18.6648 14.7095 18.681 14.6504 18.6809 14.5902V13.5082C18.681 13.4411 18.7011 13.3756 18.7385 13.3204L19.9748 11.501C20.0119 11.4463 20.0645 11.4046 20.1255 11.3815L21.8555 10.7176C21.9167 10.6942 21.9694 10.6522 22.0066 10.5973C22.0438 10.5424 22.0638 10.4771 22.0638 10.4103V9.42359C22.0638 9.36948 22.0507 9.31621 22.0257 9.2685C22.0008 9.22079 21.9647 9.18011 21.9207 9.15007C21.9207 9.15007 21.3576 7.95212 20.1865 7.97116C19.0154 7.9902 20.0838 7.92049 20.0268 7.91714C19.9699 7.9138 19.9131 7.92586 19.8622 7.95212L17.5014 9.15872C17.4474 9.18598 17.3869 9.19711 17.327 9.19084C17.2671 9.18456 17.2101 9.16113 17.1627 9.12324L16.0433 8.21872C16.0051 8.18731 15.9744 8.1474 15.9536 8.10203C15.9328 8.05666 15.9224 8.00703 15.9232 7.95693C15.924 7.90682 15.936 7.85757 15.9583 7.81294C15.9806 7.7683 16.0125 7.72946 16.0517 7.69937L16.9611 7.01471C17.0023 6.98384 17.0357 6.94335 17.0584 6.89662C17.0812 6.8499 17.0926 6.79829 17.0919 6.7461C17.0911 6.69392 17.0782 6.64267 17.0541 6.59664C17.0301 6.55062 16.9956 6.51114 16.9535 6.48152L15.5369 5.4714C15.4878 5.4361 15.4301 5.4156 15.3702 5.41224C15.3103 5.40887 15.2507 5.42277 15.1982 5.45235C14.6859 5.73886 13.1829 6.58712 12.6494 6.96883C10.1812 8.73817 8.1948 11.1214 6.87785 13.8934C6.72374 14.2188 6.53321 14.5504 6.51459 14.9078C6.49596 15.2653 6.2216 16.0634 6.10729 16.3862C6.09187 16.4299 6.08571 16.4764 6.08921 16.5226C6.09272 16.5689 6.10581 16.6139 6.12761 16.6546L9.14972 22.331C9.17692 22.3826 9.21731 22.4256 9.26658 22.4556L12.4462 24.4066C12.4874 24.4317 12.5226 24.466 12.5492 24.5069C12.5757 24.5478 12.5929 24.5943 12.5995 24.6429L13.2362 29.3637C13.2424 29.409 13.2578 29.4524 13.2812 29.4913C13.3047 29.5302 13.3358 29.5637 13.3725 29.5896L15.8536 31.3329C15.9254 31.3834 15.9755 31.4603 15.9933 31.5476L17.3092 37.9355C17.3165 37.973 17.3306 38.0088 17.3507 38.0411C17.4743 38.2453 17.9671 38.9932 18.5615 39.104C18.5065 39.1196 18.4574 39.155 18.4023 39.1715C18.5451 39.1972 18.6865 39.2307 18.8257 39.2719C18.9951 39.3186 19.1644 39.3585 19.3338 39.3957C19.5988 39.4493 19.6251 39.4909 19.7521 39.2503C19.9214 38.9283 20.1154 38.8175 20.2601 38.7777C20.3199 38.7636 20.3746 38.7326 20.4179 38.6882C20.4611 38.6438 20.4913 38.5878 20.5049 38.5266L21.3576 34.4862C21.3755 34.4015 20.9223 34.9538 21.493 34.2767C22.0638 33.5996 25.3035 31.5155 25.3035 31.5155C25.3478 31.4835 25.3839 31.4411 25.4088 31.3918C25.4337 31.3426 25.4467 31.2879 25.4466 31.2325V26.0425C25.4471 25.9891 25.4466 27.3885 25.4127 25.8883C25.3789 24.3881 25.3566 25.7982 25.3153 25.7655Z" fill="white"/>
<path d="M22.7077 4.05878C22.7077 4.05878 22.3796 4.0778 22.3131 4.07961C21.826 4.09411 21.34 4.12793 20.8553 4.18109C19.0882 4.37432 17.3576 4.82127 15.716 5.50836C15.9344 5.66056 15.5587 5.80008 15.5587 5.80008L16.1465 6.95794H19.2923L21.4494 8.04512L23.3368 6.95794L22.7077 4.05878ZM30.9972 10.5873L32.4452 9.31894C32.4905 9.27929 32.5252 9.22883 32.5462 9.17216C32.5673 9.1155 32.5739 9.05444 32.5655 8.99454C32.5571 8.93464 32.5339 8.87781 32.4982 8.82924C32.4624 8.78067 32.4151 8.7419 32.3607 8.71646L30.67 7.92553C30.5842 7.88515 30.4859 7.88058 30.3967 7.91281C30.3075 7.94505 30.2346 8.01148 30.1937 8.09767L29.4971 9.56627C29.4592 9.64656 29.4519 9.7381 29.4766 9.82347C29.5013 9.90883 29.5563 9.98207 29.631 10.0292L30.5712 10.6218C30.6365 10.6627 30.7131 10.6815 30.7898 10.6753C30.8665 10.6691 30.9392 10.6383 30.9972 10.5873ZM37.775 12.4546L37.251 11.6392C37.2429 11.6265 37.2357 11.6138 37.2285 11.6002C37.1341 11.4054 36.3531 9.81542 35.7006 9.19844C35.2107 8.73186 35.0714 8.86595 35.0328 8.96923C35.0107 9.02635 34.9737 9.07642 34.9258 9.11419L32.3337 11.226C32.2698 11.2781 32.1902 11.3066 32.1081 11.3067H30.7662C30.719 11.3066 30.6722 11.316 30.6286 11.3342C30.5849 11.3524 30.5453 11.379 30.5119 11.4127L29.4333 12.4999C29.3999 12.5335 29.3734 12.5735 29.3553 12.6175C29.3372 12.6615 29.3279 12.7086 29.3279 12.7563C29.3279 12.8039 29.3372 12.851 29.3553 12.895C29.3734 12.939 29.3999 12.979 29.4333 13.0127L30.5119 14.0998C30.5453 14.1335 30.5849 14.1602 30.6286 14.1783C30.6722 14.1965 30.719 14.2059 30.7662 14.2058H37.5224C37.5709 14.2059 37.619 14.196 37.6636 14.1769C37.7083 14.1577 37.7486 14.1296 37.7822 14.0943C37.8158 14.059 37.8419 14.0172 37.8591 13.9715C37.8762 13.9257 37.884 13.8769 37.8819 13.828L37.8325 12.6367C37.8298 12.5719 37.81 12.509 37.775 12.4546Z" fill="white"/>
<path d="M22.9999 6.82508C26.5995 6.82477 30.0879 8.09489 32.8706 10.419C35.6534 12.7432 37.5583 15.9775 38.2608 19.571C38.9633 23.1644 38.42 26.8946 36.7234 30.126C35.0268 33.3575 32.2818 35.8901 28.9563 37.2925C25.6308 38.6948 21.9304 38.8801 18.4857 37.8168C15.041 36.7534 12.0651 34.5073 10.0651 31.461C8.06501 28.4147 7.16458 24.7567 7.51719 21.1104C7.86979 17.4642 9.45361 14.0551 11.9988 11.4642C13.44 9.98886 15.1544 8.81919 17.0428 8.02288C18.9311 7.22657 20.9559 6.81945 22.9999 6.82508ZM22.9999 3.38232C12.54 3.38232 4.05872 12.015 4.05872 22.6617C4.05872 33.3084 12.54 41.9411 22.9999 41.9411C33.4598 41.9411 41.9411 33.3084 41.9411 22.6617C41.9411 12.015 33.4598 3.38232 22.9999 3.38232Z" fill="white"/>
</svg>
