<svg width="31" height="35" viewBox="0 0 31 35" fill="none" xmlns="http://www.w3.org/2000/svg">
<path d="M29.2786 8.14749C29.3236 8.11997 29.3609 8.08057 29.3869 8.03321C29.4128 7.98586 29.4265 7.9322 29.4265 7.87759C29.4265 7.82298 29.4128 7.76933 29.3869 7.72197C29.3609 7.67462 29.3236 7.63522 29.2786 7.6077L17.8965 0.675566C17.1683 0.233047 16.3414 0 15.4996 0C14.6579 0 13.831 0.233047 13.1027 0.675566L1.72289 7.6077C1.67789 7.63522 1.64056 7.67462 1.61462 7.72197C1.58867 7.76933 1.57502 7.82298 1.57502 7.87759C1.57502 7.9322 1.58867 7.98586 1.61462 8.03321C1.64056 8.08057 1.67789 8.11997 1.72289 8.14749L15.351 16.5514C15.3968 16.5797 15.449 16.5946 15.5022 16.5946C15.5554 16.5946 15.6077 16.5797 15.6535 16.5514L29.2786 8.14749ZM0.447122 10.2731C0.401666 10.2455 0.350087 10.2311 0.297599 10.2312C0.245111 10.2313 0.193576 10.2459 0.148205 10.2736C0.102834 10.3012 0.0652365 10.341 0.0392137 10.3887C0.0131909 10.4365 -0.000334203 10.4907 6.27295e-06 10.5457V24.1295C0.00113129 24.7841 0.165714 25.427 0.477386 25.9942C0.789058 26.5615 1.23696 27.0333 1.77654 27.3628L13.8606 34.9581C13.9059 34.9855 13.9572 35 14.0095 35C14.0618 35 14.1132 34.9856 14.1585 34.9582C14.2038 34.9308 14.2415 34.8914 14.2676 34.844C14.2938 34.7965 14.3076 34.7427 14.3077 34.6879V18.9277C14.3076 18.8729 14.2938 18.8191 14.2677 18.7716C14.2415 18.7242 14.2039 18.6848 14.1587 18.6574L0.447122 10.2731ZM16.6923 18.9824V34.6839C16.6924 34.7388 16.7062 34.7926 16.7324 34.8401C16.7585 34.8875 16.7962 34.9269 16.8415 34.9543C16.8868 34.9817 16.9382 34.9961 16.9905 34.9961C17.0428 34.9961 17.0941 34.9816 17.1394 34.9542L29.2227 27.3589C29.7619 27.0298 30.2096 26.5587 30.5214 25.9922C30.8331 25.4257 30.9981 24.7835 31 24.1295V10.5457C30.9998 10.4909 30.9859 10.4372 30.9597 10.3898C30.9334 10.3425 30.8958 10.3032 30.8505 10.2759C30.8052 10.2486 30.7539 10.2343 30.7017 10.2343C30.6494 10.2344 30.5981 10.2488 30.5529 10.2762L16.8414 18.7129C16.7962 18.7402 16.7587 18.7795 16.7325 18.8268C16.7064 18.874 16.6925 18.9277 16.6923 18.9824Z" fill="#E0E0E1"/>
</svg>
