<svg width="31" height="33" viewBox="0 0 31 33" fill="none" xmlns="http://www.w3.org/2000/svg">
<path d="M21.211 2.39985C19.7609 0.85225 17.7355 0 15.5 0C13.2526 0 11.2205 0.847093 9.77708 2.38512C8.31803 3.94009 7.60714 6.0534 7.77406 8.3354C8.10492 12.8375 11.5707 16.4999 15.5 16.4999C19.4293 16.4999 22.8891 12.8383 23.2252 8.33687C23.3944 6.0755 22.679 3.96661 21.211 2.39985ZM28.615 32.9998H2.38498C2.04165 33.0042 1.70164 32.9329 1.3897 32.7911C1.07775 32.6493 0.801712 32.4405 0.58166 32.18C0.0972985 31.6076 -0.0979365 30.8261 0.0466268 30.0357C0.675552 26.5869 2.63833 23.6899 5.72335 21.6561C8.46409 19.8507 11.9358 18.857 15.5 18.857C19.0642 18.857 22.5359 19.8514 25.2767 21.6561C28.3617 23.6891 30.3244 26.5862 30.9534 30.035C31.0979 30.8254 30.9027 31.6069 30.4183 32.1792C30.1984 32.4399 29.9224 32.6488 29.6104 32.7908C29.2985 32.9327 28.9584 33.0041 28.615 32.9998Z" fill="#E0E0E1"/>
</svg>
