<svg width="38" height="55" viewBox="0 0 38 55" fill="none" xmlns="http://www.w3.org/2000/svg">
<path d="M29.384 33.6582C24.6332 33.6582 20.7681 37.5234 20.7681 42.2742C20.7681 47.025 24.6332 50.8901 29.384 50.8901C34.1348 50.8901 38 47.025 38 42.2742C38 37.5234 34.1348 33.6582 29.384 33.6582ZM32.6979 42.9369H30.0468V45.588C30.0468 45.7638 29.977 45.9324 29.8527 46.0567C29.7284 46.181 29.5598 46.2508 29.384 46.2508C29.2083 46.2508 29.0397 46.181 28.9154 46.0567C28.7911 45.9324 28.7213 45.7638 28.7213 45.588V42.9369H26.0702C25.8944 42.9369 25.7258 42.8671 25.6016 42.7428C25.4773 42.6185 25.4074 42.45 25.4074 42.2742C25.4074 42.0984 25.4773 41.9298 25.6016 41.8055C25.7258 41.6812 25.8944 41.6114 26.0702 41.6114H28.7213V38.9603C28.7213 38.7846 28.7911 38.616 28.9154 38.4917C29.0397 38.3674 29.2083 38.2976 29.384 38.2976C29.5598 38.2976 29.7284 38.3674 29.8527 38.4917C29.977 38.616 30.0468 38.7846 30.0468 38.9603V41.6114H32.6979C32.8737 41.6114 33.0422 41.6812 33.1665 41.8055C33.2908 41.9298 33.3606 42.0984 33.3606 42.2742C33.3606 42.45 33.2908 42.6185 33.1665 42.7428C33.0422 42.8671 32.8737 42.9369 32.6979 42.9369Z" fill="#E0E0E1"/>
<path fill-rule="evenodd" clip-rule="evenodd" d="M0 17.4078C0 7.79844 8.27018 0 18.4628 0C28.6554 0 36.9256 7.79844 36.9256 17.4078C36.9256 22.4437 34.97 28.0943 32.3317 33.426C31.3989 33.1122 30.4 32.9422 29.3614 32.9422C24.2198 32.9422 20.0517 37.1103 20.0517 42.2519C20.0517 44.7946 21.0711 47.0993 22.7235 48.7794C20.2554 52.0917 18.4628 54.1575 18.4628 54.1575C18.4628 54.1575 0 32.8814 0 17.4078ZM14.3598 25.7749C15.5743 26.625 17.0022 27.0788 18.4628 27.0788C20.4208 27.0765 22.298 26.2607 23.6825 24.8102C25.067 23.3598 25.8458 21.3932 25.8479 19.342C25.8479 17.8118 25.4148 16.316 24.6033 15.0436C23.7918 13.7713 22.6384 12.7797 21.289 12.1941C19.9395 11.6085 18.4546 11.4553 17.022 11.7538C15.5895 12.0524 14.2736 12.7892 13.2407 13.8712C12.2079 14.9532 11.5045 16.3318 11.2196 17.8326C10.9346 19.3334 11.0809 20.889 11.6398 22.3027C12.1988 23.7164 13.1454 24.9248 14.3598 25.7749Z" fill="#E0E0E1"/>
</svg>
